<?xml version="1.0" encoding="UTF-8" standalone="no"?>
<!-- Created with Inkscape (http://www.inkscape.org/) -->

<svg
   xmlns:dc="http://purl.org/dc/elements/1.1/"
   xmlns:cc="http://creativecommons.org/ns#"
   xmlns:rdf="http://www.w3.org/1999/02/22-rdf-syntax-ns#"
   xmlns:svg="http://www.w3.org/2000/svg"
   xmlns="http://www.w3.org/2000/svg"
   xmlns:xlink="http://www.w3.org/1999/xlink"
   xmlns:sodipodi="http://sodipodi.sourceforge.net/DTD/sodipodi-0.dtd"
   xmlns:inkscape="http://www.inkscape.org/namespaces/inkscape"
   width="210mm"
   height="210mm"
   viewBox="0 0 210 210"
   version="1.1"
   id="svg1833"
   inkscape:version="0.92.4 (5da689c313, 2019-01-14)"
   sodipodi:docname="icon.svg">
  <defs
     id="defs1827">
    <linearGradient
       inkscape:collect="always"
       xlink:href="#linearGradient5632"
       id="linearGradient2323"
       gradientUnits="userSpaceOnUse"
       gradientTransform="matrix(2.6232465,0,0,2.6232465,1199.4622,-823.05326)"
       x1="-420.77844"
       y1="352.00723"
       x2="-403.79514"
       y2="368.74045" />
    <linearGradient
       id="linearGradient5632"
       inkscape:collect="always">
      <stop
         id="stop5628"
         offset="0"
         style="stop-color:#2e578c;stop-opacity:1" />
      <stop
         id="stop5630"
         offset="1"
         style="stop-color:#4189c5;stop-opacity:0.97475493" />
    </linearGradient>
    <linearGradient
       inkscape:collect="always"
       xlink:href="#linearGradient5626"
       id="linearGradient2321"
       gradientUnits="userSpaceOnUse"
       gradientTransform="matrix(2.6232465,0,0,2.6232465,1200.8503,-824.44028)"
       x1="-443.11313"
       y1="352.52673"
       x2="-427.01709"
       y2="367.89938" />
    <linearGradient
       id="linearGradient5626"
       inkscape:collect="always">
      <stop
         id="stop5622"
         offset="0"
         style="stop-color:#203463;stop-opacity:1" />
      <stop
         id="stop5624"
         offset="1"
         style="stop-color:#428cc9;stop-opacity:1" />
    </linearGradient>
    <linearGradient
       inkscape:collect="always"
       xlink:href="#linearGradient5626"
       id="linearGradient5586"
       gradientUnits="userSpaceOnUse"
       gradientTransform="translate(-69.027906,16.60733)"
       x1="-443.11313"
       y1="352.52673"
       x2="-427.01709"
       y2="367.89938" />
    <linearGradient
       inkscape:collect="always"
       xlink:href="#linearGradient5632"
       id="linearGradient5604"
       gradientUnits="userSpaceOnUse"
       gradientTransform="translate(-69.557069,17.13607)"
       x1="-420.77844"
       y1="352.00723"
       x2="-403.79514"
       y2="368.74045" />
    <linearGradient
       inkscape:collect="always"
       xlink:href="#linearGradient5638"
       id="linearGradient5612"
       gradientUnits="userSpaceOnUse"
       gradientTransform="translate(-69.027908,16.607328)"
       x1="-429.3681"
       y1="360.20679"
       x2="-423.02301"
       y2="365.19073" />
    <linearGradient
       id="linearGradient5638"
       inkscape:collect="always">
      <stop
         id="stop5634"
         offset="0"
         style="stop-color:#1a3050;stop-opacity:1" />
      <stop
         id="stop5636"
         offset="1"
         style="stop-color:#1e3a5c;stop-opacity:1" />
    </linearGradient>
  </defs>
  <sodipodi:namedview
     id="base"
     pagecolor="#ffffff"
     bordercolor="#666666"
     borderopacity="1.0"
     inkscape:pageopacity="0.0"
     inkscape:pageshadow="2"
     inkscape:zoom="0.35"
     inkscape:cx="-221.42857"
     inkscape:cy="560"
     inkscape:document-units="mm"
     inkscape:current-layer="layer1"
     showgrid="false"
     inkscape:window-width="2560"
     inkscape:window-height="1027"
     inkscape:window-x="1912"
     inkscape:window-y="-8"
     inkscape:window-maximized="1" />
  <metadata
     id="metadata1830">
    <rdf:RDF>
      <cc:Work
         rdf:about="">
        <dc:format>image/svg+xml</dc:format>
        <dc:type
           rdf:resource="http://purl.org/dc/dcmitype/StillImage" />
        <dc:title></dc:title>
      </cc:Work>
    </rdf:RDF>
  </metadata>
  <g
     inkscape:label="Camada 1"
     inkscape:groupmode="layer"
     id="layer1"
     transform="translate(0,-87)">
    <g
       id="g2440"
       transform="translate(-0.83328657,101.375)">
      <g
         transform="matrix(2.6232465,0,0,2.6232465,1381.9275,-868.00543)"
         id="g5661">
        <path
           id="path5580"
           d="m -498.84655,377.32578 c 1.68471,1.38377 2.62057,3.98132 6.89585,2.91879 -1.29217,1.26456 -2.96019,2.88825 -4.25236,4.1528 -1.1025,0.98966 -3.22465,1.74602 -4.3355,0.86831 l -12.18615,-12.17435 c -1.5987,-2.67786 1.72816,-6.39581 4.63373,-4.796 0.15807,0.13649 9.24443,9.03045 9.24443,9.03045"
           style="fill:url(#linearGradient5586);fill-opacity:1;stroke:none;stroke-width:0.1;stroke-linecap:butt;stroke-linejoin:miter;stroke-miterlimit:4;stroke-dasharray:none;stroke-opacity:1"
           inkscape:connector-curvature="0"
           sodipodi:nodetypes="ccccccc" />
        <path
           style="fill:url(#linearGradient5604);fill-opacity:1;stroke:none;stroke-width:0.1;stroke-linecap:butt;stroke-linejoin:miter;stroke-miterlimit:4;stroke-dasharray:none;stroke-opacity:1"
           d="m -481.31673,361.03542 c -0.59121,-0.0305 -1.18522,0.25347 -1.8402,0.84749 -4.89175,4.81708 -9.83924,9.71137 -14.73502,14.53401 -10e-4,-10e-4 -0.002,-0.003 -0.003,-0.004 l -0.95136,0.9126 c 1.6847,1.38377 2.6204,3.98121 6.8957,2.91867 l 0.65214,-0.68884 c 3.72232,-3.63919 6.7396,-6.54262 10.07227,-9.80406 l 16.54215,16.10548 c 2.8581,1.57427 5.94828,-1.72321 4.57697,-4.48344 l -19.80758,-19.6944 c -0.48384,-0.40621 -0.94216,-0.62015 -1.40198,-0.64389 z"
           id="path5598"
           inkscape:connector-curvature="0" />
        <circle
           style="opacity:1;fill:#6094c4;fill-opacity:1;fill-rule:nonzero;stroke:none;stroke-width:0.1;stroke-linecap:round;stroke-linejoin:miter;stroke-miterlimit:4;stroke-dasharray:none;stroke-opacity:1"
           id="path5541"
           cx="-481.23965"
           cy="351.60913"
           r="7" />
        <path
           style="opacity:0.83999999;fill:url(#linearGradient5612);fill-opacity:1;stroke:none;stroke-width:0.1;stroke-linecap:butt;stroke-linejoin:miter;stroke-miterlimit:4;stroke-dasharray:none;stroke-opacity:1"
           d="m -491.9507,380.24457 c -4.27528,1.06253 -5.21114,-1.53502 -6.89585,-2.91879 l 0.95168,-0.91258 c 1.31378,1.32166 2.90093,3.60271 6.75176,2.9773 z"
           id="path5568"
           inkscape:connector-curvature="0"
           sodipodi:nodetypes="ccccc" />
      </g>
      <path
         id="path2281"
         d="m 73.330066,121.81313 c 4.41941,3.62996 6.8744,10.44398 18.08951,7.6567 -3.38968,3.31725 -7.7653,7.5766 -11.15498,10.89383 -2.89213,2.59612 -8.45906,4.58024 -11.37309,2.27779 l -31.96728,-31.93633 c -4.19378,-7.02469 4.53339,-16.777787 12.15542,-12.581085 0.41466,0.35804 24.25042,23.689095 24.25042,23.689095"
         style="fill:url(#linearGradient2321);fill-opacity:1;stroke:#ffffff;stroke-width:0.26232466;stroke-linecap:butt;stroke-linejoin:miter;stroke-miterlimit:4;stroke-dasharray:none;stroke-opacity:1"
         inkscape:connector-curvature="0"
         sodipodi:nodetypes="ccccccc" />
      <path
         style="fill:url(#linearGradient2323);fill-opacity:1;stroke:#ffffff;stroke-width:0.26232466;stroke-linecap:butt;stroke-linejoin:miter;stroke-miterlimit:4;stroke-dasharray:none;stroke-opacity:1"
         d="m 119.31511,79.079494 c -1.55089,-0.08 -3.10912,0.664921 -4.8273,2.22318 -12.83226,12.636391 -25.810754,25.475306 -38.653594,38.126286 -0.003,-0.003 -0.005,-0.008 -0.008,-0.0105 l -2.49565,2.39399 c 4.41938,3.62997 6.87396,10.44369 18.08912,7.65638 l 1.71072,-1.807 c 9.764564,-9.54649 17.679634,-17.1629 26.422054,-25.71846 l 43.39413,42.24865 c 7.4975,4.1297 15.60381,-4.5204 12.00652,-11.76118 L 122.99296,80.767583 c -1.26923,-1.065588 -2.47152,-1.626809 -3.67774,-1.689079 z"
         id="path2283"
         inkscape:connector-curvature="0" />
      <circle
         style="opacity:1;fill:#6094c4;fill-opacity:1;fill-rule:nonzero;stroke:#ffffff;stroke-width:0.26232466;stroke-linecap:round;stroke-linejoin:miter;stroke-miterlimit:4;stroke-dasharray:none;stroke-opacity:1"
         id="circle2285"
         cx="119.51733"
         cy="54.352016"
         r="18.362726" />
    </g>
  </g>
</svg>
